# xmcd CD database file
#
# Track frame offsets:
#	182
#	18300
#	34320
#	57340
#	69550
#	86105
#	106955
#	127045
#	152447
#
# Disc length: 2331 seconds
#
# Revision: 0
# Processed by: cddbd v1.4PL0 Copyright (c) Steve Scherf et al.
# Submitted via: CDex 1.50
#
DISCID=74091909
DTITLE=Dicky Williams - In Your Face
DYEAR=1900
DGENRE=Blues
TTITLE0=The Same Motel
TTITLE1=I Didn't Do Nothing
TTITLE2=Come Back Pussy
TTITLE3=Laughin And Grinnin (In Your Face)
TTITLE4=I Wanna Know Why
TTITLE5=Ugly Men
TTITLE6=Fat Girls
TTITLE7=Do You Know (Where Your Woman Is Tonight)
TTITLE8=Bad Luck And Hard Times
EXTD=
EXTT0=
EXTT1=
EXTT2=
EXTT3=
EXTT4=
EXTT5=
EXTT6=
EXTT7=
EXTT8=
PLAYORDER=
